<svg width="48" height="24" viewBox="0 0 48 24" fill="none" xmlns="http://www.w3.org/2000/svg">
<path d="M48 12C48 7.58172 44.4183 4 40 4C35.5817 4 32 7.58172 32 12C32 16.4183 35.5817 20 40 20C44.4183 20 48 16.4183 48 12ZM0.93934 10.9393C0.353553 11.5251 0.353553 12.4749 0.93934 13.0607L10.4853 22.6066C11.0711 23.1924 12.0208 23.1924 12.6066 22.6066C13.1924 22.0208 13.1924 21.0711 12.6066 20.4853L4.12132 12L12.6066 3.51472C13.1924 2.92893 13.1924 1.97918 12.6066 1.3934C12.0208 0.807609 11.0711 0.807609 10.4853 1.3934L0.93934 10.9393ZM40 10.5L2 10.5L2 13.5L40 13.5L40 10.5Z" fill="white"/>
</svg>
