<svg width="168" height="37" viewBox="0 0 168 37" fill="none" xmlns="http://www.w3.org/2000/svg"><path d="M19.654 17.11L14.571.833h2.75l3.642 11.89 3.73-11.89h2.357l3.752 11.89L34.424.834h2.596L31.959 17.11h-2.357L25.806 5.11l-3.774 12h-2.378zm17.24-.11L43.374.725h2.705L52.58 17h-2.727l-1.2-3.098h-7.919L39.534 17h-2.64zm4.756-5.541h6.065l-3.032-7.57-3.033 7.57zM54.758 17V.834h2.858l8.508 11.672V.834H68.7V17h-2.422L57.333 4.761V17h-2.575zm17.47 0V.834h2.858l8.508 11.672V.834h2.574V17h-2.421L74.802 4.761V17h-2.574zm16.117 0L94.825.725h2.705L104.03 17h-2.727l-1.2-3.098h-7.92L90.985 17h-2.639zm4.756-5.541h6.065l-3.032-7.57-3.033 7.57zm24.116 5.76c-2.814 0-5.235-.634-7.177-1.986l1.331-2.029c1.81 1.2 3.774 1.702 5.781 1.702 3.251 0 4.276-.764 4.276-2.51 0-1.744-1.636-2.072-4.32-2.486-3.905-.611-6.195-1.287-6.195-4.69 0-3.382 2.072-4.647 6.283-4.647 2.901 0 4.821.676 6.086 1.527l-1.418 2.16c-1.091-.72-2.901-1.244-4.69-1.244-2.705 0-3.643.633-3.643 2.138 0 1.636 1.505 1.942 4.232 2.378 3.709.589 6.283 1.178 6.283 4.734 0 3.25-1.92 4.952-6.829 4.952zm9.636-.219V.834h11.41v2.531h-8.77v4.058h8.552v2.509h-8.552v4.581h8.857V17h-11.497zm14.466 0V.834h11.41v2.531h-8.77v4.058h8.552v2.509h-8.552v4.581h8.857V17h-11.497z" fill="#fff"/><path d="M.85 36V19.834h4.517v5.803h6.195v-5.803H16.1V36h-4.538v-6.13H5.367V36H.85zm26.136.262c-5.127 0-8.77-2.116-8.77-8.356 0-6.217 3.643-8.333 8.77-8.333 5.126 0 8.791 2.116 8.791 8.333 0 6.24-3.665 8.356-8.792 8.356zm0-3.97c3.36 0 4.21-1.79 4.21-4.299 0-2.508-.85-4.275-4.21-4.275s-4.211 1.767-4.211 4.276c0 2.508.85 4.297 4.21 4.297zm14.128 3.817l-4.777-16.275h4.712l2.378 8.858 2.552-8.858h4.102l2.574 8.858 2.378-8.858h4.428L54.684 36.11H50.67l-2.771-9.49-2.77 9.49h-4.015zM69.717 36V23.914h-5.366v-4.08h15.27v4.08h-5.366V36h-4.538zm19.244.262c-5.127 0-8.77-2.116-8.77-8.356 0-6.217 3.643-8.333 8.77-8.333 5.126 0 8.791 2.116 8.791 8.333 0 6.24-3.665 8.356-8.791 8.356zm0-3.97c3.36 0 4.21-1.79 4.21-4.299 0-2.508-.85-4.275-4.21-4.275s-4.21 1.767-4.21 4.276c0 2.508.85 4.297 4.21 4.297zm18.922 3.817l-4.778-16.275h4.712l2.378 8.858 2.553-8.858h4.101l2.575 8.858 2.378-8.858h4.428l-4.778 16.275h-4.014l-2.77-9.49-2.771 9.49h-4.014zM128.216 36V19.834h4.516V36h-4.516zm7.749 0V19.834h4.843l6.305 8.552v-8.552h4.319V36h-4.167l-6.981-9.446V36h-4.319zm22.268-4.887c-.502-3.032.218-3.927 2.792-4.886 1.789-.677 2.007-.917 2.007-1.702 0-.72-.327-1.113-2.334-1.113a10.885 10.885 0 00-4.559 1.047l-1.811-3.578c1.658-.785 4.232-1.308 6.719-1.308 4.102 0 6.436 1.134 6.436 4.537 0 2.51-1.069 3.49-2.989 4.21-2.116.808-2.203 1.004-2.051 2.793h-4.21zM157.884 36v-4.058h4.887V36h-4.887z" fill="#FCEE1E"/></svg>